<mxfile host="65bd71144e">
    <diagram id="R2lEEEUBdFMjLlhIrx00" name="Page-1">
        <mxGraphModel dx="3889" dy="1171" grid="1" gridSize="10" guides="1" tooltips="1" connect="1" arrows="1" fold="1" page="1" pageScale="1" pageWidth="850" pageHeight="1100" math="0" shadow="0" extFonts="Permanent Marker^https://fonts.googleapis.com/css?family=Permanent+Marker">
            <root>
                <mxCell id="0"/>
                <mxCell id="1" parent="0"/>
                <mxCell id="Fzed2xLTQUTYp7m4JMjA-57" value="Car" style="shape=table;startSize=30;container=1;collapsible=1;childLayout=tableLayout;fixedRows=1;rowLines=0;fontStyle=1;align=center;resizeLast=1;html=1;fillColor=#fff2cc;strokeColor=#d6b656;" parent="1" vertex="1">
                    <mxGeometry x="-1280" y="210" width="209" height="300" as="geometry"/>
                </mxCell>
                <mxCell id="Fzed2xLTQUTYp7m4JMjA-58" value="" style="shape=tableRow;horizontal=0;startSize=0;swimlaneHead=0;swimlaneBody=0;fillColor=none;collapsible=0;dropTarget=0;points=[[0,0.5],[1,0.5]];portConstraint=eastwest;top=0;left=0;right=0;bottom=1;" parent="Fzed2xLTQUTYp7m4JMjA-57" vertex="1">
                    <mxGeometry y="30" width="209" height="30" as="geometry"/>
                </mxCell>
                <mxCell id="Fzed2xLTQUTYp7m4JMjA-59" value="PK" style="shape=partialRectangle;connectable=0;fillColor=none;top=0;left=0;bottom=0;right=0;fontStyle=1;overflow=hidden;whiteSpace=wrap;html=1;" parent="Fzed2xLTQUTYp7m4JMjA-58" vertex="1">
                    <mxGeometry width="30" height="30" as="geometry">
                        <mxRectangle width="30" height="30" as="alternateBounds"/>
                    </mxGeometry>
                </mxCell>
                <mxCell id="Fzed2xLTQUTYp7m4JMjA-60" value="+ Id: &lt;font color=&quot;#358a62&quot;&gt;Long&lt;/font&gt;" style="shape=partialRectangle;connectable=0;fillColor=none;top=0;left=0;bottom=0;right=0;align=left;spacingLeft=6;fontStyle=5;overflow=hidden;whiteSpace=wrap;html=1;" parent="Fzed2xLTQUTYp7m4JMjA-58" vertex="1">
                    <mxGeometry x="30" width="179" height="30" as="geometry">
                        <mxRectangle width="179" height="30" as="alternateBounds"/>
                    </mxGeometry>
                </mxCell>
                <mxCell id="Fzed2xLTQUTYp7m4JMjA-61" value="" style="shape=tableRow;horizontal=0;startSize=0;swimlaneHead=0;swimlaneBody=0;fillColor=none;collapsible=0;dropTarget=0;points=[[0,0.5],[1,0.5]];portConstraint=eastwest;top=0;left=0;right=0;bottom=0;" parent="Fzed2xLTQUTYp7m4JMjA-57" vertex="1">
                    <mxGeometry y="60" width="209" height="30" as="geometry"/>
                </mxCell>
                <mxCell id="Fzed2xLTQUTYp7m4JMjA-62" value="" style="shape=partialRectangle;connectable=0;fillColor=none;top=0;left=0;bottom=0;right=0;editable=1;overflow=hidden;whiteSpace=wrap;html=1;" parent="Fzed2xLTQUTYp7m4JMjA-61" vertex="1">
                    <mxGeometry width="30" height="30" as="geometry">
                        <mxRectangle width="30" height="30" as="alternateBounds"/>
                    </mxGeometry>
                </mxCell>
                <mxCell id="Fzed2xLTQUTYp7m4JMjA-63" value="- rentals: &lt;b style=&quot;&quot;&gt;&lt;font color=&quot;#358a62&quot;&gt;Set&lt;/font&gt;&lt;/b&gt;&lt;b&gt;&amp;lt;&lt;font color=&quot;#358a62&quot;&gt;Rental&lt;/font&gt;&amp;gt;&lt;/b&gt;" style="shape=partialRectangle;connectable=0;fillColor=none;top=0;left=0;bottom=0;right=0;align=left;spacingLeft=6;overflow=hidden;whiteSpace=wrap;html=1;" parent="Fzed2xLTQUTYp7m4JMjA-61" vertex="1">
                    <mxGeometry x="30" width="179" height="30" as="geometry">
                        <mxRectangle width="179" height="30" as="alternateBounds"/>
                    </mxGeometry>
                </mxCell>
                <mxCell id="Fzed2xLTQUTYp7m4JMjA-64" value="" style="shape=tableRow;horizontal=0;startSize=0;swimlaneHead=0;swimlaneBody=0;fillColor=none;collapsible=0;dropTarget=0;points=[[0,0.5],[1,0.5]];portConstraint=eastwest;top=0;left=0;right=0;bottom=0;" parent="Fzed2xLTQUTYp7m4JMjA-57" vertex="1">
                    <mxGeometry y="90" width="209" height="30" as="geometry"/>
                </mxCell>
                <mxCell id="Fzed2xLTQUTYp7m4JMjA-65" value="" style="shape=partialRectangle;connectable=0;fillColor=none;top=0;left=0;bottom=0;right=0;editable=1;overflow=hidden;whiteSpace=wrap;html=1;" parent="Fzed2xLTQUTYp7m4JMjA-64" vertex="1">
                    <mxGeometry width="30" height="30" as="geometry">
                        <mxRectangle width="30" height="30" as="alternateBounds"/>
                    </mxGeometry>
                </mxCell>
                <mxCell id="Fzed2xLTQUTYp7m4JMjA-66" value="- brand: &lt;b style=&quot;&quot;&gt;&lt;font color=&quot;#358a62&quot;&gt;String&lt;/font&gt;&lt;/b&gt;" style="shape=partialRectangle;connectable=0;fillColor=none;top=0;left=0;bottom=0;right=0;align=left;spacingLeft=6;overflow=hidden;whiteSpace=wrap;html=1;" parent="Fzed2xLTQUTYp7m4JMjA-64" vertex="1">
                    <mxGeometry x="30" width="179" height="30" as="geometry">
                        <mxRectangle width="179" height="30" as="alternateBounds"/>
                    </mxGeometry>
                </mxCell>
                <mxCell id="Fzed2xLTQUTYp7m4JMjA-67" value="" style="shape=tableRow;horizontal=0;startSize=0;swimlaneHead=0;swimlaneBody=0;fillColor=none;collapsible=0;dropTarget=0;points=[[0,0.5],[1,0.5]];portConstraint=eastwest;top=0;left=0;right=0;bottom=0;" parent="Fzed2xLTQUTYp7m4JMjA-57" vertex="1">
                    <mxGeometry y="120" width="209" height="30" as="geometry"/>
                </mxCell>
                <mxCell id="Fzed2xLTQUTYp7m4JMjA-68" value="" style="shape=partialRectangle;connectable=0;fillColor=none;top=0;left=0;bottom=0;right=0;editable=1;overflow=hidden;whiteSpace=wrap;html=1;" parent="Fzed2xLTQUTYp7m4JMjA-67" vertex="1">
                    <mxGeometry width="30" height="30" as="geometry">
                        <mxRectangle width="30" height="30" as="alternateBounds"/>
                    </mxGeometry>
                </mxCell>
                <mxCell id="Fzed2xLTQUTYp7m4JMjA-69" value="- type: &lt;b style=&quot;&quot;&gt;&lt;font color=&quot;#358a62&quot;&gt;String&lt;/font&gt;&lt;/b&gt;" style="shape=partialRectangle;connectable=0;fillColor=none;top=0;left=0;bottom=0;right=0;align=left;spacingLeft=6;overflow=hidden;whiteSpace=wrap;html=1;" parent="Fzed2xLTQUTYp7m4JMjA-67" vertex="1">
                    <mxGeometry x="30" width="179" height="30" as="geometry">
                        <mxRectangle width="179" height="30" as="alternateBounds"/>
                    </mxGeometry>
                </mxCell>
                <mxCell id="Fzed2xLTQUTYp7m4JMjA-82" value="" style="shape=tableRow;horizontal=0;startSize=0;swimlaneHead=0;swimlaneBody=0;fillColor=none;collapsible=0;dropTarget=0;points=[[0,0.5],[1,0.5]];portConstraint=eastwest;top=0;left=0;right=0;bottom=0;" parent="Fzed2xLTQUTYp7m4JMjA-57" vertex="1">
                    <mxGeometry y="150" width="209" height="30" as="geometry"/>
                </mxCell>
                <mxCell id="Fzed2xLTQUTYp7m4JMjA-83" value="" style="shape=partialRectangle;connectable=0;fillColor=none;top=0;left=0;bottom=0;right=0;editable=1;overflow=hidden;whiteSpace=wrap;html=1;" parent="Fzed2xLTQUTYp7m4JMjA-82" vertex="1">
                    <mxGeometry width="30" height="30" as="geometry">
                        <mxRectangle width="30" height="30" as="alternateBounds"/>
                    </mxGeometry>
                </mxCell>
                <mxCell id="Fzed2xLTQUTYp7m4JMjA-84" value="- licencePlate: &lt;b style=&quot;&quot;&gt;&lt;font color=&quot;#358a62&quot;&gt;String&lt;/font&gt;&lt;/b&gt;" style="shape=partialRectangle;connectable=0;fillColor=none;top=0;left=0;bottom=0;right=0;align=left;spacingLeft=6;overflow=hidden;whiteSpace=wrap;html=1;" parent="Fzed2xLTQUTYp7m4JMjA-82" vertex="1">
                    <mxGeometry x="30" width="179" height="30" as="geometry">
                        <mxRectangle width="179" height="30" as="alternateBounds"/>
                    </mxGeometry>
                </mxCell>
                <mxCell id="Fzed2xLTQUTYp7m4JMjA-85" value="" style="shape=tableRow;horizontal=0;startSize=0;swimlaneHead=0;swimlaneBody=0;fillColor=none;collapsible=0;dropTarget=0;points=[[0,0.5],[1,0.5]];portConstraint=eastwest;top=0;left=0;right=0;bottom=0;" parent="Fzed2xLTQUTYp7m4JMjA-57" vertex="1">
                    <mxGeometry y="180" width="209" height="30" as="geometry"/>
                </mxCell>
                <mxCell id="Fzed2xLTQUTYp7m4JMjA-86" value="" style="shape=partialRectangle;connectable=0;fillColor=none;top=0;left=0;bottom=0;right=0;editable=1;overflow=hidden;whiteSpace=wrap;html=1;" parent="Fzed2xLTQUTYp7m4JMjA-85" vertex="1">
                    <mxGeometry width="30" height="30" as="geometry">
                        <mxRectangle width="30" height="30" as="alternateBounds"/>
                    </mxGeometry>
                </mxCell>
                <mxCell id="Fzed2xLTQUTYp7m4JMjA-87" value="- numberOfSeats: &lt;b style=&quot;&quot;&gt;&lt;font color=&quot;#358a62&quot;&gt;short&lt;/font&gt;&lt;/b&gt;" style="shape=partialRectangle;connectable=0;fillColor=none;top=0;left=0;bottom=0;right=0;align=left;spacingLeft=6;overflow=hidden;whiteSpace=wrap;html=1;" parent="Fzed2xLTQUTYp7m4JMjA-85" vertex="1">
                    <mxGeometry x="30" width="179" height="30" as="geometry">
                        <mxRectangle width="179" height="30" as="alternateBounds"/>
                    </mxGeometry>
                </mxCell>
                <mxCell id="Fzed2xLTQUTYp7m4JMjA-88" value="" style="shape=tableRow;horizontal=0;startSize=0;swimlaneHead=0;swimlaneBody=0;fillColor=none;collapsible=0;dropTarget=0;points=[[0,0.5],[1,0.5]];portConstraint=eastwest;top=0;left=0;right=0;bottom=0;" parent="Fzed2xLTQUTYp7m4JMjA-57" vertex="1">
                    <mxGeometry y="210" width="209" height="30" as="geometry"/>
                </mxCell>
                <mxCell id="Fzed2xLTQUTYp7m4JMjA-89" value="" style="shape=partialRectangle;connectable=0;fillColor=none;top=0;left=0;bottom=0;right=0;editable=1;overflow=hidden;whiteSpace=wrap;html=1;" parent="Fzed2xLTQUTYp7m4JMjA-88" vertex="1">
                    <mxGeometry width="30" height="30" as="geometry">
                        <mxRectangle width="30" height="30" as="alternateBounds"/>
                    </mxGeometry>
                </mxCell>
                <mxCell id="Fzed2xLTQUTYp7m4JMjA-90" value="- numberOfChildSeats: &lt;b style=&quot;&quot;&gt;&lt;font color=&quot;#358a62&quot;&gt;short&lt;/font&gt;&lt;/b&gt;" style="shape=partialRectangle;connectable=0;fillColor=none;top=0;left=0;bottom=0;right=0;align=left;spacingLeft=6;overflow=hidden;whiteSpace=wrap;html=1;" parent="Fzed2xLTQUTYp7m4JMjA-88" vertex="1">
                    <mxGeometry x="30" width="179" height="30" as="geometry">
                        <mxRectangle width="179" height="30" as="alternateBounds"/>
                    </mxGeometry>
                </mxCell>
                <mxCell id="Fzed2xLTQUTYp7m4JMjA-91" value="" style="shape=tableRow;horizontal=0;startSize=0;swimlaneHead=0;swimlaneBody=0;fillColor=none;collapsible=0;dropTarget=0;points=[[0,0.5],[1,0.5]];portConstraint=eastwest;top=0;left=0;right=0;bottom=0;" parent="Fzed2xLTQUTYp7m4JMjA-57" vertex="1">
                    <mxGeometry y="240" width="209" height="30" as="geometry"/>
                </mxCell>
                <mxCell id="Fzed2xLTQUTYp7m4JMjA-92" value="" style="shape=partialRectangle;connectable=0;fillColor=none;top=0;left=0;bottom=0;right=0;editable=1;overflow=hidden;whiteSpace=wrap;html=1;" parent="Fzed2xLTQUTYp7m4JMjA-91" vertex="1">
                    <mxGeometry width="30" height="30" as="geometry">
                        <mxRectangle width="30" height="30" as="alternateBounds"/>
                    </mxGeometry>
                </mxCell>
                <mxCell id="Fzed2xLTQUTYp7m4JMjA-93" value="- foldingRearSeat: &lt;b style=&quot;&quot;&gt;&lt;font color=&quot;#358a62&quot;&gt;boolean&lt;/font&gt;&lt;/b&gt;" style="shape=partialRectangle;connectable=0;fillColor=none;top=0;left=0;bottom=0;right=0;align=left;spacingLeft=6;overflow=hidden;whiteSpace=wrap;html=1;" parent="Fzed2xLTQUTYp7m4JMjA-91" vertex="1">
                    <mxGeometry x="30" width="179" height="30" as="geometry">
                        <mxRectangle width="179" height="30" as="alternateBounds"/>
                    </mxGeometry>
                </mxCell>
                <mxCell id="Fzed2xLTQUTYp7m4JMjA-94" value="" style="shape=tableRow;horizontal=0;startSize=0;swimlaneHead=0;swimlaneBody=0;fillColor=none;collapsible=0;dropTarget=0;points=[[0,0.5],[1,0.5]];portConstraint=eastwest;top=0;left=0;right=0;bottom=0;" parent="Fzed2xLTQUTYp7m4JMjA-57" vertex="1">
                    <mxGeometry y="270" width="209" height="30" as="geometry"/>
                </mxCell>
                <mxCell id="Fzed2xLTQUTYp7m4JMjA-95" value="" style="shape=partialRectangle;connectable=0;fillColor=none;top=0;left=0;bottom=0;right=0;editable=1;overflow=hidden;whiteSpace=wrap;html=1;" parent="Fzed2xLTQUTYp7m4JMjA-94" vertex="1">
                    <mxGeometry width="30" height="30" as="geometry">
                        <mxRectangle width="30" height="30" as="alternateBounds"/>
                    </mxGeometry>
                </mxCell>
                <mxCell id="Fzed2xLTQUTYp7m4JMjA-96" value="- towBar: &lt;font color=&quot;#358a62&quot;&gt;&lt;b&gt;boolean&lt;/b&gt;&lt;/font&gt;" style="shape=partialRectangle;connectable=0;fillColor=none;top=0;left=0;bottom=0;right=0;align=left;spacingLeft=6;overflow=hidden;whiteSpace=wrap;html=1;" parent="Fzed2xLTQUTYp7m4JMjA-94" vertex="1">
                    <mxGeometry x="30" width="179" height="30" as="geometry">
                        <mxRectangle width="179" height="30" as="alternateBounds"/>
                    </mxGeometry>
                </mxCell>
                <mxCell id="Fzed2xLTQUTYp7m4JMjA-97" value="Greeting" style="shape=table;startSize=30;container=1;collapsible=1;childLayout=tableLayout;fixedRows=1;rowLines=0;fontStyle=1;align=center;resizeLast=1;html=1;fillColor=#fff2cc;strokeColor=#d6b656;" parent="1" vertex="1">
                    <mxGeometry x="-680" y="670" width="209" height="90" as="geometry"/>
                </mxCell>
                <mxCell id="Fzed2xLTQUTYp7m4JMjA-98" value="" style="shape=tableRow;horizontal=0;startSize=0;swimlaneHead=0;swimlaneBody=0;fillColor=none;collapsible=0;dropTarget=0;points=[[0,0.5],[1,0.5]];portConstraint=eastwest;top=0;left=0;right=0;bottom=1;" parent="Fzed2xLTQUTYp7m4JMjA-97" vertex="1">
                    <mxGeometry y="30" width="209" height="30" as="geometry"/>
                </mxCell>
                <mxCell id="Fzed2xLTQUTYp7m4JMjA-99" value="PK" style="shape=partialRectangle;connectable=0;fillColor=none;top=0;left=0;bottom=0;right=0;fontStyle=1;overflow=hidden;whiteSpace=wrap;html=1;" parent="Fzed2xLTQUTYp7m4JMjA-98" vertex="1">
                    <mxGeometry width="30" height="30" as="geometry">
                        <mxRectangle width="30" height="30" as="alternateBounds"/>
                    </mxGeometry>
                </mxCell>
                <mxCell id="Fzed2xLTQUTYp7m4JMjA-100" value="+ Id: &lt;font color=&quot;#358a62&quot;&gt;Long&lt;/font&gt;" style="shape=partialRectangle;connectable=0;fillColor=none;top=0;left=0;bottom=0;right=0;align=left;spacingLeft=6;fontStyle=5;overflow=hidden;whiteSpace=wrap;html=1;" parent="Fzed2xLTQUTYp7m4JMjA-98" vertex="1">
                    <mxGeometry x="30" width="179" height="30" as="geometry">
                        <mxRectangle width="179" height="30" as="alternateBounds"/>
                    </mxGeometry>
                </mxCell>
                <mxCell id="Fzed2xLTQUTYp7m4JMjA-101" value="" style="shape=tableRow;horizontal=0;startSize=0;swimlaneHead=0;swimlaneBody=0;fillColor=none;collapsible=0;dropTarget=0;points=[[0,0.5],[1,0.5]];portConstraint=eastwest;top=0;left=0;right=0;bottom=0;" parent="Fzed2xLTQUTYp7m4JMjA-97" vertex="1">
                    <mxGeometry y="60" width="209" height="30" as="geometry"/>
                </mxCell>
                <mxCell id="Fzed2xLTQUTYp7m4JMjA-102" value="" style="shape=partialRectangle;connectable=0;fillColor=none;top=0;left=0;bottom=0;right=0;editable=1;overflow=hidden;whiteSpace=wrap;html=1;" parent="Fzed2xLTQUTYp7m4JMjA-101" vertex="1">
                    <mxGeometry width="30" height="30" as="geometry">
                        <mxRectangle width="30" height="30" as="alternateBounds"/>
                    </mxGeometry>
                </mxCell>
                <mxCell id="Fzed2xLTQUTYp7m4JMjA-103" value="- text: &lt;font color=&quot;#358a62&quot;&gt;&lt;b&gt;String&lt;/b&gt;&lt;/font&gt;" style="shape=partialRectangle;connectable=0;fillColor=none;top=0;left=0;bottom=0;right=0;align=left;spacingLeft=6;overflow=hidden;whiteSpace=wrap;html=1;" parent="Fzed2xLTQUTYp7m4JMjA-101" vertex="1">
                    <mxGeometry x="30" width="179" height="30" as="geometry">
                        <mxRectangle width="179" height="30" as="alternateBounds"/>
                    </mxGeometry>
                </mxCell>
                <mxCell id="Fzed2xLTQUTYp7m4JMjA-125" value="blueprint" style="shape=table;startSize=30;container=1;collapsible=1;childLayout=tableLayout;fixedRows=1;rowLines=0;fontStyle=1;align=center;resizeLast=1;html=1;fillColor=#fff2cc;strokeColor=#d6b656;" parent="1" vertex="1">
                    <mxGeometry x="-300" y="930" width="209" height="90" as="geometry"/>
                </mxCell>
                <mxCell id="Fzed2xLTQUTYp7m4JMjA-126" value="" style="shape=tableRow;horizontal=0;startSize=0;swimlaneHead=0;swimlaneBody=0;fillColor=none;collapsible=0;dropTarget=0;points=[[0,0.5],[1,0.5]];portConstraint=eastwest;top=0;left=0;right=0;bottom=1;" parent="Fzed2xLTQUTYp7m4JMjA-125" vertex="1">
                    <mxGeometry y="30" width="209" height="30" as="geometry"/>
                </mxCell>
                <mxCell id="Fzed2xLTQUTYp7m4JMjA-127" value="PK" style="shape=partialRectangle;connectable=0;fillColor=none;top=0;left=0;bottom=0;right=0;fontStyle=1;overflow=hidden;whiteSpace=wrap;html=1;" parent="Fzed2xLTQUTYp7m4JMjA-126" vertex="1">
                    <mxGeometry width="30" height="30" as="geometry">
                        <mxRectangle width="30" height="30" as="alternateBounds"/>
                    </mxGeometry>
                </mxCell>
                <mxCell id="Fzed2xLTQUTYp7m4JMjA-128" value="+ Id: &lt;font color=&quot;#358a62&quot;&gt;Long&lt;/font&gt;" style="shape=partialRectangle;connectable=0;fillColor=none;top=0;left=0;bottom=0;right=0;align=left;spacingLeft=6;fontStyle=5;overflow=hidden;whiteSpace=wrap;html=1;" parent="Fzed2xLTQUTYp7m4JMjA-126" vertex="1">
                    <mxGeometry x="30" width="179" height="30" as="geometry">
                        <mxRectangle width="179" height="30" as="alternateBounds"/>
                    </mxGeometry>
                </mxCell>
                <mxCell id="Fzed2xLTQUTYp7m4JMjA-129" value="" style="shape=tableRow;horizontal=0;startSize=0;swimlaneHead=0;swimlaneBody=0;fillColor=none;collapsible=0;dropTarget=0;points=[[0,0.5],[1,0.5]];portConstraint=eastwest;top=0;left=0;right=0;bottom=0;" parent="Fzed2xLTQUTYp7m4JMjA-125" vertex="1">
                    <mxGeometry y="60" width="209" height="30" as="geometry"/>
                </mxCell>
                <mxCell id="Fzed2xLTQUTYp7m4JMjA-130" value="" style="shape=partialRectangle;connectable=0;fillColor=none;top=0;left=0;bottom=0;right=0;editable=1;overflow=hidden;whiteSpace=wrap;html=1;" parent="Fzed2xLTQUTYp7m4JMjA-129" vertex="1">
                    <mxGeometry width="30" height="30" as="geometry">
                        <mxRectangle width="30" height="30" as="alternateBounds"/>
                    </mxGeometry>
                </mxCell>
                <mxCell id="Fzed2xLTQUTYp7m4JMjA-131" value="- text: &lt;font color=&quot;#358a62&quot;&gt;&lt;b&gt;String&lt;/b&gt;&lt;/font&gt;" style="shape=partialRectangle;connectable=0;fillColor=none;top=0;left=0;bottom=0;right=0;align=left;spacingLeft=6;overflow=hidden;whiteSpace=wrap;html=1;" parent="Fzed2xLTQUTYp7m4JMjA-129" vertex="1">
                    <mxGeometry x="30" width="179" height="30" as="geometry">
                        <mxRectangle width="179" height="30" as="alternateBounds"/>
                    </mxGeometry>
                </mxCell>
                <mxCell id="Fzed2xLTQUTYp7m4JMjA-181" value="Rent" style="shape=table;startSize=30;container=1;collapsible=1;childLayout=tableLayout;fixedRows=1;rowLines=0;fontStyle=1;align=center;resizeLast=1;html=1;fillColor=#fff2cc;strokeColor=#d6b656;" parent="1" vertex="1">
                    <mxGeometry x="-730" y="80" width="250" height="330" as="geometry"/>
                </mxCell>
                <mxCell id="Fzed2xLTQUTYp7m4JMjA-182" value="" style="shape=tableRow;horizontal=0;startSize=0;swimlaneHead=0;swimlaneBody=0;fillColor=none;collapsible=0;dropTarget=0;points=[[0,0.5],[1,0.5]];portConstraint=eastwest;top=0;left=0;right=0;bottom=1;" parent="Fzed2xLTQUTYp7m4JMjA-181" vertex="1">
                    <mxGeometry y="30" width="250" height="30" as="geometry"/>
                </mxCell>
                <mxCell id="Fzed2xLTQUTYp7m4JMjA-183" value="PK" style="shape=partialRectangle;connectable=0;fillColor=none;top=0;left=0;bottom=0;right=0;fontStyle=1;overflow=hidden;whiteSpace=wrap;html=1;" parent="Fzed2xLTQUTYp7m4JMjA-182" vertex="1">
                    <mxGeometry width="30" height="30" as="geometry">
                        <mxRectangle width="30" height="30" as="alternateBounds"/>
                    </mxGeometry>
                </mxCell>
                <mxCell id="Fzed2xLTQUTYp7m4JMjA-184" value="+ Id: &lt;font color=&quot;#4ec98f&quot;&gt;Long&lt;/font&gt;" style="shape=partialRectangle;connectable=0;fillColor=none;top=0;left=0;bottom=0;right=0;align=left;spacingLeft=6;fontStyle=5;overflow=hidden;whiteSpace=wrap;html=1;" parent="Fzed2xLTQUTYp7m4JMjA-182" vertex="1">
                    <mxGeometry x="30" width="220" height="30" as="geometry">
                        <mxRectangle width="220" height="30" as="alternateBounds"/>
                    </mxGeometry>
                </mxCell>
                <mxCell id="Fzed2xLTQUTYp7m4JMjA-185" value="" style="shape=tableRow;horizontal=0;startSize=0;swimlaneHead=0;swimlaneBody=0;fillColor=none;collapsible=0;dropTarget=0;points=[[0,0.5],[1,0.5]];portConstraint=eastwest;top=0;left=0;right=0;bottom=0;" parent="Fzed2xLTQUTYp7m4JMjA-181" vertex="1">
                    <mxGeometry y="60" width="250" height="30" as="geometry"/>
                </mxCell>
                <mxCell id="Fzed2xLTQUTYp7m4JMjA-186" value="" style="shape=partialRectangle;connectable=0;fillColor=none;top=0;left=0;bottom=0;right=0;editable=1;overflow=hidden;whiteSpace=wrap;html=1;" parent="Fzed2xLTQUTYp7m4JMjA-185" vertex="1">
                    <mxGeometry width="30" height="30" as="geometry">
                        <mxRectangle width="30" height="30" as="alternateBounds"/>
                    </mxGeometry>
                </mxCell>
                <mxCell id="Fzed2xLTQUTYp7m4JMjA-187" value="- rental: &lt;font color=&quot;#358a62&quot;&gt;&lt;b&gt;Rental&lt;/b&gt;&lt;/font&gt;" style="shape=partialRectangle;connectable=0;fillColor=none;top=0;left=0;bottom=0;right=0;align=left;spacingLeft=6;overflow=hidden;whiteSpace=wrap;html=1;" parent="Fzed2xLTQUTYp7m4JMjA-185" vertex="1">
                    <mxGeometry x="30" width="220" height="30" as="geometry">
                        <mxRectangle width="220" height="30" as="alternateBounds"/>
                    </mxGeometry>
                </mxCell>
                <mxCell id="Fzed2xLTQUTYp7m4JMjA-203" value="" style="shape=tableRow;horizontal=0;startSize=0;swimlaneHead=0;swimlaneBody=0;fillColor=none;collapsible=0;dropTarget=0;points=[[0,0.5],[1,0.5]];portConstraint=eastwest;top=0;left=0;right=0;bottom=0;" parent="Fzed2xLTQUTYp7m4JMjA-181" vertex="1">
                    <mxGeometry y="90" width="250" height="30" as="geometry"/>
                </mxCell>
                <mxCell id="Fzed2xLTQUTYp7m4JMjA-204" value="" style="shape=partialRectangle;connectable=0;fillColor=none;top=0;left=0;bottom=0;right=0;editable=1;overflow=hidden;whiteSpace=wrap;html=1;" parent="Fzed2xLTQUTYp7m4JMjA-203" vertex="1">
                    <mxGeometry width="30" height="30" as="geometry">
                        <mxRectangle width="30" height="30" as="alternateBounds"/>
                    </mxGeometry>
                </mxCell>
                <mxCell id="Fzed2xLTQUTYp7m4JMjA-205" value="- startDate: &lt;b style=&quot;&quot;&gt;&lt;font color=&quot;#358a62&quot;&gt;LocalDate&lt;/font&gt;&lt;/b&gt;" style="shape=partialRectangle;connectable=0;fillColor=none;top=0;left=0;bottom=0;right=0;align=left;spacingLeft=6;overflow=hidden;whiteSpace=wrap;html=1;" parent="Fzed2xLTQUTYp7m4JMjA-203" vertex="1">
                    <mxGeometry x="30" width="220" height="30" as="geometry">
                        <mxRectangle width="220" height="30" as="alternateBounds"/>
                    </mxGeometry>
                </mxCell>
                <mxCell id="Fzed2xLTQUTYp7m4JMjA-206" value="" style="shape=tableRow;horizontal=0;startSize=0;swimlaneHead=0;swimlaneBody=0;fillColor=none;collapsible=0;dropTarget=0;points=[[0,0.5],[1,0.5]];portConstraint=eastwest;top=0;left=0;right=0;bottom=0;" parent="Fzed2xLTQUTYp7m4JMjA-181" vertex="1">
                    <mxGeometry y="120" width="250" height="30" as="geometry"/>
                </mxCell>
                <mxCell id="Fzed2xLTQUTYp7m4JMjA-207" value="" style="shape=partialRectangle;connectable=0;fillColor=none;top=0;left=0;bottom=0;right=0;editable=1;overflow=hidden;whiteSpace=wrap;html=1;" parent="Fzed2xLTQUTYp7m4JMjA-206" vertex="1">
                    <mxGeometry width="30" height="30" as="geometry">
                        <mxRectangle width="30" height="30" as="alternateBounds"/>
                    </mxGeometry>
                </mxCell>
                <mxCell id="Fzed2xLTQUTYp7m4JMjA-208" value="- endDate: &lt;font color=&quot;#358a62&quot;&gt;&lt;b&gt;LocalDate&lt;/b&gt;&lt;/font&gt;" style="shape=partialRectangle;connectable=0;fillColor=none;top=0;left=0;bottom=0;right=0;align=left;spacingLeft=6;overflow=hidden;whiteSpace=wrap;html=1;" parent="Fzed2xLTQUTYp7m4JMjA-206" vertex="1">
                    <mxGeometry x="30" width="220" height="30" as="geometry">
                        <mxRectangle width="220" height="30" as="alternateBounds"/>
                    </mxGeometry>
                </mxCell>
                <mxCell id="Fzed2xLTQUTYp7m4JMjA-209" value="" style="shape=tableRow;horizontal=0;startSize=0;swimlaneHead=0;swimlaneBody=0;fillColor=none;collapsible=0;dropTarget=0;points=[[0,0.5],[1,0.5]];portConstraint=eastwest;top=0;left=0;right=0;bottom=0;" parent="Fzed2xLTQUTYp7m4JMjA-181" vertex="1">
                    <mxGeometry y="150" width="250" height="30" as="geometry"/>
                </mxCell>
                <mxCell id="Fzed2xLTQUTYp7m4JMjA-210" value="" style="shape=partialRectangle;connectable=0;fillColor=none;top=0;left=0;bottom=0;right=0;editable=1;overflow=hidden;whiteSpace=wrap;html=1;" parent="Fzed2xLTQUTYp7m4JMjA-209" vertex="1">
                    <mxGeometry width="30" height="30" as="geometry">
                        <mxRectangle width="30" height="30" as="alternateBounds"/>
                    </mxGeometry>
                </mxCell>
                <mxCell id="Fzed2xLTQUTYp7m4JMjA-211" value="- phoneNumber: &lt;b style=&quot;&quot;&gt;&lt;font color=&quot;#358a62&quot;&gt;String&lt;/font&gt;&lt;/b&gt;" style="shape=partialRectangle;connectable=0;fillColor=none;top=0;left=0;bottom=0;right=0;align=left;spacingLeft=6;overflow=hidden;whiteSpace=wrap;html=1;" parent="Fzed2xLTQUTYp7m4JMjA-209" vertex="1">
                    <mxGeometry x="30" width="220" height="30" as="geometry">
                        <mxRectangle width="220" height="30" as="alternateBounds"/>
                    </mxGeometry>
                </mxCell>
                <mxCell id="Fzed2xLTQUTYp7m4JMjA-212" value="" style="shape=tableRow;horizontal=0;startSize=0;swimlaneHead=0;swimlaneBody=0;fillColor=none;collapsible=0;dropTarget=0;points=[[0,0.5],[1,0.5]];portConstraint=eastwest;top=0;left=0;right=0;bottom=0;" parent="Fzed2xLTQUTYp7m4JMjA-181" vertex="1">
                    <mxGeometry y="180" width="250" height="30" as="geometry"/>
                </mxCell>
                <mxCell id="Fzed2xLTQUTYp7m4JMjA-213" value="" style="shape=partialRectangle;connectable=0;fillColor=none;top=0;left=0;bottom=0;right=0;editable=1;overflow=hidden;whiteSpace=wrap;html=1;" parent="Fzed2xLTQUTYp7m4JMjA-212" vertex="1">
                    <mxGeometry width="30" height="30" as="geometry">
                        <mxRectangle width="30" height="30" as="alternateBounds"/>
                    </mxGeometry>
                </mxCell>
                <mxCell id="Fzed2xLTQUTYp7m4JMjA-214" value="- email: &lt;font style=&quot;&quot; color=&quot;#358a62&quot;&gt;&lt;b&gt;String&lt;/b&gt;&lt;/font&gt;" style="shape=partialRectangle;connectable=0;fillColor=none;top=0;left=0;bottom=0;right=0;align=left;spacingLeft=6;overflow=hidden;whiteSpace=wrap;html=1;" parent="Fzed2xLTQUTYp7m4JMjA-212" vertex="1">
                    <mxGeometry x="30" width="220" height="30" as="geometry">
                        <mxRectangle width="220" height="30" as="alternateBounds"/>
                    </mxGeometry>
                </mxCell>
                <mxCell id="Fzed2xLTQUTYp7m4JMjA-218" value="" style="shape=tableRow;horizontal=0;startSize=0;swimlaneHead=0;swimlaneBody=0;fillColor=none;collapsible=0;dropTarget=0;points=[[0,0.5],[1,0.5]];portConstraint=eastwest;top=0;left=0;right=0;bottom=0;" parent="Fzed2xLTQUTYp7m4JMjA-181" vertex="1">
                    <mxGeometry y="210" width="250" height="30" as="geometry"/>
                </mxCell>
                <mxCell id="Fzed2xLTQUTYp7m4JMjA-219" value="" style="shape=partialRectangle;connectable=0;fillColor=none;top=0;left=0;bottom=0;right=0;editable=1;overflow=hidden;whiteSpace=wrap;html=1;" parent="Fzed2xLTQUTYp7m4JMjA-218" vertex="1">
                    <mxGeometry width="30" height="30" as="geometry">
                        <mxRectangle width="30" height="30" as="alternateBounds"/>
                    </mxGeometry>
                </mxCell>
                <mxCell id="Fzed2xLTQUTYp7m4JMjA-220" value="- nationalRegisterNumber: &lt;font color=&quot;#358a62&quot;&gt;&lt;b&gt;String&lt;/b&gt;&lt;/font&gt;" style="shape=partialRectangle;connectable=0;fillColor=none;top=0;left=0;bottom=0;right=0;align=left;spacingLeft=6;overflow=hidden;whiteSpace=wrap;html=1;" parent="Fzed2xLTQUTYp7m4JMjA-218" vertex="1">
                    <mxGeometry x="30" width="220" height="30" as="geometry">
                        <mxRectangle width="220" height="30" as="alternateBounds"/>
                    </mxGeometry>
                </mxCell>
                <mxCell id="Fzed2xLTQUTYp7m4JMjA-215" value="" style="shape=tableRow;horizontal=0;startSize=0;swimlaneHead=0;swimlaneBody=0;fillColor=none;collapsible=0;dropTarget=0;points=[[0,0.5],[1,0.5]];portConstraint=eastwest;top=0;left=0;right=0;bottom=0;" parent="Fzed2xLTQUTYp7m4JMjA-181" vertex="1">
                    <mxGeometry y="240" width="250" height="30" as="geometry"/>
                </mxCell>
                <mxCell id="Fzed2xLTQUTYp7m4JMjA-216" value="" style="shape=partialRectangle;connectable=0;fillColor=none;top=0;left=0;bottom=0;right=0;editable=1;overflow=hidden;whiteSpace=wrap;html=1;" parent="Fzed2xLTQUTYp7m4JMjA-215" vertex="1">
                    <mxGeometry width="30" height="30" as="geometry">
                        <mxRectangle width="30" height="30" as="alternateBounds"/>
                    </mxGeometry>
                </mxCell>
                <mxCell id="Fzed2xLTQUTYp7m4JMjA-217" value="- birthDate: &lt;b style=&quot;&quot;&gt;&lt;font color=&quot;#358a62&quot;&gt;Localdate&lt;/font&gt;&lt;/b&gt;" style="shape=partialRectangle;connectable=0;fillColor=none;top=0;left=0;bottom=0;right=0;align=left;spacingLeft=6;overflow=hidden;whiteSpace=wrap;html=1;" parent="Fzed2xLTQUTYp7m4JMjA-215" vertex="1">
                    <mxGeometry x="30" width="220" height="30" as="geometry">
                        <mxRectangle width="220" height="30" as="alternateBounds"/>
                    </mxGeometry>
                </mxCell>
                <mxCell id="Fzed2xLTQUTYp7m4JMjA-221" value="" style="shape=tableRow;horizontal=0;startSize=0;swimlaneHead=0;swimlaneBody=0;fillColor=none;collapsible=0;dropTarget=0;points=[[0,0.5],[1,0.5]];portConstraint=eastwest;top=0;left=0;right=0;bottom=0;" parent="Fzed2xLTQUTYp7m4JMjA-181" vertex="1">
                    <mxGeometry y="270" width="250" height="30" as="geometry"/>
                </mxCell>
                <mxCell id="Fzed2xLTQUTYp7m4JMjA-222" value="" style="shape=partialRectangle;connectable=0;fillColor=none;top=0;left=0;bottom=0;right=0;editable=1;overflow=hidden;whiteSpace=wrap;html=1;" parent="Fzed2xLTQUTYp7m4JMjA-221" vertex="1">
                    <mxGeometry width="30" height="30" as="geometry">
                        <mxRectangle width="30" height="30" as="alternateBounds"/>
                    </mxGeometry>
                </mxCell>
                <mxCell id="Fzed2xLTQUTYp7m4JMjA-223" value="- licenceNumber: &lt;b style=&quot;&quot;&gt;&lt;font color=&quot;#358a62&quot;&gt;String&lt;/font&gt;&lt;/b&gt;" style="shape=partialRectangle;connectable=0;fillColor=none;top=0;left=0;bottom=0;right=0;align=left;spacingLeft=6;overflow=hidden;whiteSpace=wrap;html=1;" parent="Fzed2xLTQUTYp7m4JMjA-221" vertex="1">
                    <mxGeometry x="30" width="220" height="30" as="geometry">
                        <mxRectangle width="220" height="30" as="alternateBounds"/>
                    </mxGeometry>
                </mxCell>
                <mxCell id="Fzed2xLTQUTYp7m4JMjA-224" value="" style="shape=tableRow;horizontal=0;startSize=0;swimlaneHead=0;swimlaneBody=0;fillColor=none;collapsible=0;dropTarget=0;points=[[0,0.5],[1,0.5]];portConstraint=eastwest;top=0;left=0;right=0;bottom=0;" parent="Fzed2xLTQUTYp7m4JMjA-181" vertex="1">
                    <mxGeometry y="300" width="250" height="30" as="geometry"/>
                </mxCell>
                <mxCell id="Fzed2xLTQUTYp7m4JMjA-225" value="" style="shape=partialRectangle;connectable=0;fillColor=none;top=0;left=0;bottom=0;right=0;editable=1;overflow=hidden;whiteSpace=wrap;html=1;" parent="Fzed2xLTQUTYp7m4JMjA-224" vertex="1">
                    <mxGeometry width="30" height="30" as="geometry">
                        <mxRectangle width="30" height="30" as="alternateBounds"/>
                    </mxGeometry>
                </mxCell>
                <mxCell id="Fzed2xLTQUTYp7m4JMjA-226" value="- rentStatus: &lt;b style=&quot;&quot;&gt;&lt;font color=&quot;#358a62&quot;&gt;RentStatus&lt;/font&gt;&lt;/b&gt;" style="shape=partialRectangle;connectable=0;fillColor=none;top=0;left=0;bottom=0;right=0;align=left;spacingLeft=6;overflow=hidden;whiteSpace=wrap;html=1;" parent="Fzed2xLTQUTYp7m4JMjA-224" vertex="1">
                    <mxGeometry x="30" width="220" height="30" as="geometry">
                        <mxRectangle width="220" height="30" as="alternateBounds"/>
                    </mxGeometry>
                </mxCell>
                <mxCell id="Fzed2xLTQUTYp7m4JMjA-227" value="RentStatus" style="swimlane;fontStyle=0;childLayout=stackLayout;horizontal=1;startSize=26;horizontalStack=0;resizeParent=1;resizeParentMax=0;resizeLast=0;collapsible=1;marginBottom=0;align=center;fontSize=14;fillColor=#dae8fc;strokeColor=#6c8ebf;" parent="1" vertex="1">
                    <mxGeometry x="-645" y="434" width="160" height="116" as="geometry"/>
                </mxCell>
                <mxCell id="Fzed2xLTQUTYp7m4JMjA-228" value="&lt;font color=&quot;#0066cc&quot;&gt;&lt;b&gt;Confirmed&lt;/b&gt;&lt;/font&gt;" style="text;strokeColor=none;fillColor=none;spacingLeft=4;spacingRight=4;overflow=hidden;rotatable=0;points=[[0,0.5],[1,0.5]];portConstraint=eastwest;fontSize=12;whiteSpace=wrap;html=1;" parent="Fzed2xLTQUTYp7m4JMjA-227" vertex="1">
                    <mxGeometry y="26" width="160" height="30" as="geometry"/>
                </mxCell>
                <mxCell id="Fzed2xLTQUTYp7m4JMjA-229" value="&lt;b style=&quot;&quot;&gt;&lt;font color=&quot;#0066cc&quot;&gt;Pending&lt;/font&gt;&lt;/b&gt;" style="text;strokeColor=none;fillColor=none;spacingLeft=4;spacingRight=4;overflow=hidden;rotatable=0;points=[[0,0.5],[1,0.5]];portConstraint=eastwest;fontSize=12;whiteSpace=wrap;html=1;" parent="Fzed2xLTQUTYp7m4JMjA-227" vertex="1">
                    <mxGeometry y="56" width="160" height="30" as="geometry"/>
                </mxCell>
                <mxCell id="Fzed2xLTQUTYp7m4JMjA-230" value="&lt;b&gt;&lt;font color=&quot;#0066cc&quot;&gt;Rejected&lt;/font&gt;&lt;/b&gt;" style="text;strokeColor=none;fillColor=none;spacingLeft=4;spacingRight=4;overflow=hidden;rotatable=0;points=[[0,0.5],[1,0.5]];portConstraint=eastwest;fontSize=12;whiteSpace=wrap;html=1;" parent="Fzed2xLTQUTYp7m4JMjA-227" vertex="1">
                    <mxGeometry y="86" width="160" height="30" as="geometry"/>
                </mxCell>
                <mxCell id="Fzed2xLTQUTYp7m4JMjA-231" value="" style="edgeStyle=entityRelationEdgeStyle;fontSize=12;html=1;endArrow=ERmandOne;startArrow=ERmandOne;rounded=0;" parent="1" source="Fzed2xLTQUTYp7m4JMjA-227" target="Fzed2xLTQUTYp7m4JMjA-224" edge="1">
                    <mxGeometry width="100" height="100" relative="1" as="geometry">
                        <mxPoint x="-720" y="730" as="sourcePoint"/>
                        <mxPoint x="-620" y="630" as="targetPoint"/>
                    </mxGeometry>
                </mxCell>
                <mxCell id="Fzed2xLTQUTYp7m4JMjA-232" value="Rental" style="shape=table;startSize=30;container=1;collapsible=1;childLayout=tableLayout;fixedRows=1;rowLines=0;fontStyle=1;align=center;resizeLast=1;html=1;fillColor=#fff2cc;strokeColor=#d6b656;" parent="1" vertex="1">
                    <mxGeometry x="-1010" y="520" width="209" height="360" as="geometry"/>
                </mxCell>
                <mxCell id="Fzed2xLTQUTYp7m4JMjA-233" value="" style="shape=tableRow;horizontal=0;startSize=0;swimlaneHead=0;swimlaneBody=0;fillColor=none;collapsible=0;dropTarget=0;points=[[0,0.5],[1,0.5]];portConstraint=eastwest;top=0;left=0;right=0;bottom=1;" parent="Fzed2xLTQUTYp7m4JMjA-232" vertex="1">
                    <mxGeometry y="30" width="209" height="30" as="geometry"/>
                </mxCell>
                <mxCell id="Fzed2xLTQUTYp7m4JMjA-234" value="PK" style="shape=partialRectangle;connectable=0;fillColor=none;top=0;left=0;bottom=0;right=0;fontStyle=1;overflow=hidden;whiteSpace=wrap;html=1;" parent="Fzed2xLTQUTYp7m4JMjA-233" vertex="1">
                    <mxGeometry width="30" height="30" as="geometry">
                        <mxRectangle width="30" height="30" as="alternateBounds"/>
                    </mxGeometry>
                </mxCell>
                <mxCell id="Fzed2xLTQUTYp7m4JMjA-235" value="+ Id: &lt;font color=&quot;#358a62&quot;&gt;Long&lt;/font&gt;" style="shape=partialRectangle;connectable=0;fillColor=none;top=0;left=0;bottom=0;right=0;align=left;spacingLeft=6;fontStyle=5;overflow=hidden;whiteSpace=wrap;html=1;" parent="Fzed2xLTQUTYp7m4JMjA-233" vertex="1">
                    <mxGeometry x="30" width="179" height="30" as="geometry">
                        <mxRectangle width="179" height="30" as="alternateBounds"/>
                    </mxGeometry>
                </mxCell>
                <mxCell id="Fzed2xLTQUTYp7m4JMjA-236" value="" style="shape=tableRow;horizontal=0;startSize=0;swimlaneHead=0;swimlaneBody=0;fillColor=none;collapsible=0;dropTarget=0;points=[[0,0.5],[1,0.5]];portConstraint=eastwest;top=0;left=0;right=0;bottom=0;" parent="Fzed2xLTQUTYp7m4JMjA-232" vertex="1">
                    <mxGeometry y="60" width="209" height="30" as="geometry"/>
                </mxCell>
                <mxCell id="Fzed2xLTQUTYp7m4JMjA-237" value="" style="shape=partialRectangle;connectable=0;fillColor=none;top=0;left=0;bottom=0;right=0;editable=1;overflow=hidden;whiteSpace=wrap;html=1;" parent="Fzed2xLTQUTYp7m4JMjA-236" vertex="1">
                    <mxGeometry width="30" height="30" as="geometry">
                        <mxRectangle width="30" height="30" as="alternateBounds"/>
                    </mxGeometry>
                </mxCell>
                <mxCell id="Fzed2xLTQUTYp7m4JMjA-238" value="- car: &lt;font color=&quot;#358a62&quot;&gt;&lt;b&gt;Car&lt;/b&gt;&lt;/font&gt;" style="shape=partialRectangle;connectable=0;fillColor=none;top=0;left=0;bottom=0;right=0;align=left;spacingLeft=6;overflow=hidden;whiteSpace=wrap;html=1;" parent="Fzed2xLTQUTYp7m4JMjA-236" vertex="1">
                    <mxGeometry x="30" width="179" height="30" as="geometry">
                        <mxRectangle width="179" height="30" as="alternateBounds"/>
                    </mxGeometry>
                </mxCell>
                <mxCell id="Fzed2xLTQUTYp7m4JMjA-239" value="" style="shape=tableRow;horizontal=0;startSize=0;swimlaneHead=0;swimlaneBody=0;fillColor=none;collapsible=0;dropTarget=0;points=[[0,0.5],[1,0.5]];portConstraint=eastwest;top=0;left=0;right=0;bottom=0;" parent="Fzed2xLTQUTYp7m4JMjA-232" vertex="1">
                    <mxGeometry y="90" width="209" height="30" as="geometry"/>
                </mxCell>
                <mxCell id="Fzed2xLTQUTYp7m4JMjA-240" value="" style="shape=partialRectangle;connectable=0;fillColor=none;top=0;left=0;bottom=0;right=0;editable=1;overflow=hidden;whiteSpace=wrap;html=1;" parent="Fzed2xLTQUTYp7m4JMjA-239" vertex="1">
                    <mxGeometry width="30" height="30" as="geometry">
                        <mxRectangle width="30" height="30" as="alternateBounds"/>
                    </mxGeometry>
                </mxCell>
                <mxCell id="Fzed2xLTQUTYp7m4JMjA-241" value="- rents: &lt;b style=&quot;&quot;&gt;&lt;font color=&quot;#358a62&quot;&gt;Set&lt;/font&gt;&amp;lt;&lt;font color=&quot;#358a62&quot;&gt;Rent&lt;/font&gt;&amp;gt;&lt;/b&gt;" style="shape=partialRectangle;connectable=0;fillColor=none;top=0;left=0;bottom=0;right=0;align=left;spacingLeft=6;overflow=hidden;whiteSpace=wrap;html=1;" parent="Fzed2xLTQUTYp7m4JMjA-239" vertex="1">
                    <mxGeometry x="30" width="179" height="30" as="geometry">
                        <mxRectangle width="179" height="30" as="alternateBounds"/>
                    </mxGeometry>
                </mxCell>
                <mxCell id="Fzed2xLTQUTYp7m4JMjA-242" value="" style="shape=tableRow;horizontal=0;startSize=0;swimlaneHead=0;swimlaneBody=0;fillColor=none;collapsible=0;dropTarget=0;points=[[0,0.5],[1,0.5]];portConstraint=eastwest;top=0;left=0;right=0;bottom=0;" parent="Fzed2xLTQUTYp7m4JMjA-232" vertex="1">
                    <mxGeometry y="120" width="209" height="30" as="geometry"/>
                </mxCell>
                <mxCell id="Fzed2xLTQUTYp7m4JMjA-243" value="" style="shape=partialRectangle;connectable=0;fillColor=none;top=0;left=0;bottom=0;right=0;editable=1;overflow=hidden;whiteSpace=wrap;html=1;" parent="Fzed2xLTQUTYp7m4JMjA-242" vertex="1">
                    <mxGeometry width="30" height="30" as="geometry">
                        <mxRectangle width="30" height="30" as="alternateBounds"/>
                    </mxGeometry>
                </mxCell>
                <mxCell id="Fzed2xLTQUTYp7m4JMjA-244" value="- startDate: &lt;font color=&quot;#358a62&quot;&gt;&lt;b&gt;LocalDate&lt;/b&gt;&lt;/font&gt;" style="shape=partialRectangle;connectable=0;fillColor=none;top=0;left=0;bottom=0;right=0;align=left;spacingLeft=6;overflow=hidden;whiteSpace=wrap;html=1;" parent="Fzed2xLTQUTYp7m4JMjA-242" vertex="1">
                    <mxGeometry x="30" width="179" height="30" as="geometry">
                        <mxRectangle width="179" height="30" as="alternateBounds"/>
                    </mxGeometry>
                </mxCell>
                <mxCell id="Fzed2xLTQUTYp7m4JMjA-245" value="" style="shape=tableRow;horizontal=0;startSize=0;swimlaneHead=0;swimlaneBody=0;fillColor=none;collapsible=0;dropTarget=0;points=[[0,0.5],[1,0.5]];portConstraint=eastwest;top=0;left=0;right=0;bottom=0;" parent="Fzed2xLTQUTYp7m4JMjA-232" vertex="1">
                    <mxGeometry y="150" width="209" height="30" as="geometry"/>
                </mxCell>
                <mxCell id="Fzed2xLTQUTYp7m4JMjA-246" value="" style="shape=partialRectangle;connectable=0;fillColor=none;top=0;left=0;bottom=0;right=0;editable=1;overflow=hidden;whiteSpace=wrap;html=1;" parent="Fzed2xLTQUTYp7m4JMjA-245" vertex="1">
                    <mxGeometry width="30" height="30" as="geometry">
                        <mxRectangle width="30" height="30" as="alternateBounds"/>
                    </mxGeometry>
                </mxCell>
                <mxCell id="Fzed2xLTQUTYp7m4JMjA-247" value="- endDate: &lt;font color=&quot;#358a62&quot;&gt;&lt;b&gt;LocalDate&lt;/b&gt;&lt;/font&gt;" style="shape=partialRectangle;connectable=0;fillColor=none;top=0;left=0;bottom=0;right=0;align=left;spacingLeft=6;overflow=hidden;whiteSpace=wrap;html=1;" parent="Fzed2xLTQUTYp7m4JMjA-245" vertex="1">
                    <mxGeometry x="30" width="179" height="30" as="geometry">
                        <mxRectangle width="179" height="30" as="alternateBounds"/>
                    </mxGeometry>
                </mxCell>
                <mxCell id="Fzed2xLTQUTYp7m4JMjA-248" value="" style="shape=tableRow;horizontal=0;startSize=0;swimlaneHead=0;swimlaneBody=0;fillColor=none;collapsible=0;dropTarget=0;points=[[0,0.5],[1,0.5]];portConstraint=eastwest;top=0;left=0;right=0;bottom=0;" parent="Fzed2xLTQUTYp7m4JMjA-232" vertex="1">
                    <mxGeometry y="180" width="209" height="30" as="geometry"/>
                </mxCell>
                <mxCell id="Fzed2xLTQUTYp7m4JMjA-249" value="" style="shape=partialRectangle;connectable=0;fillColor=none;top=0;left=0;bottom=0;right=0;editable=1;overflow=hidden;whiteSpace=wrap;html=1;" parent="Fzed2xLTQUTYp7m4JMjA-248" vertex="1">
                    <mxGeometry width="30" height="30" as="geometry">
                        <mxRectangle width="30" height="30" as="alternateBounds"/>
                    </mxGeometry>
                </mxCell>
                <mxCell id="Fzed2xLTQUTYp7m4JMjA-250" value="- street: &lt;font color=&quot;#358a62&quot;&gt;&lt;b&gt;String&lt;/b&gt;&lt;/font&gt;" style="shape=partialRectangle;connectable=0;fillColor=none;top=0;left=0;bottom=0;right=0;align=left;spacingLeft=6;overflow=hidden;whiteSpace=wrap;html=1;" parent="Fzed2xLTQUTYp7m4JMjA-248" vertex="1">
                    <mxGeometry x="30" width="179" height="30" as="geometry">
                        <mxRectangle width="179" height="30" as="alternateBounds"/>
                    </mxGeometry>
                </mxCell>
                <mxCell id="Fzed2xLTQUTYp7m4JMjA-251" value="" style="shape=tableRow;horizontal=0;startSize=0;swimlaneHead=0;swimlaneBody=0;fillColor=none;collapsible=0;dropTarget=0;points=[[0,0.5],[1,0.5]];portConstraint=eastwest;top=0;left=0;right=0;bottom=0;" parent="Fzed2xLTQUTYp7m4JMjA-232" vertex="1">
                    <mxGeometry y="210" width="209" height="30" as="geometry"/>
                </mxCell>
                <mxCell id="Fzed2xLTQUTYp7m4JMjA-252" value="" style="shape=partialRectangle;connectable=0;fillColor=none;top=0;left=0;bottom=0;right=0;editable=1;overflow=hidden;whiteSpace=wrap;html=1;" parent="Fzed2xLTQUTYp7m4JMjA-251" vertex="1">
                    <mxGeometry width="30" height="30" as="geometry">
                        <mxRectangle width="30" height="30" as="alternateBounds"/>
                    </mxGeometry>
                </mxCell>
                <mxCell id="Fzed2xLTQUTYp7m4JMjA-253" value="- streetNumber: &lt;font color=&quot;#358a62&quot;&gt;&lt;b&gt;int&lt;/b&gt;&lt;/font&gt;" style="shape=partialRectangle;connectable=0;fillColor=none;top=0;left=0;bottom=0;right=0;align=left;spacingLeft=6;overflow=hidden;whiteSpace=wrap;html=1;" parent="Fzed2xLTQUTYp7m4JMjA-251" vertex="1">
                    <mxGeometry x="30" width="179" height="30" as="geometry">
                        <mxRectangle width="179" height="30" as="alternateBounds"/>
                    </mxGeometry>
                </mxCell>
                <mxCell id="Fzed2xLTQUTYp7m4JMjA-257" value="" style="shape=tableRow;horizontal=0;startSize=0;swimlaneHead=0;swimlaneBody=0;fillColor=none;collapsible=0;dropTarget=0;points=[[0,0.5],[1,0.5]];portConstraint=eastwest;top=0;left=0;right=0;bottom=0;" parent="Fzed2xLTQUTYp7m4JMjA-232" vertex="1">
                    <mxGeometry y="240" width="209" height="30" as="geometry"/>
                </mxCell>
                <mxCell id="Fzed2xLTQUTYp7m4JMjA-258" value="" style="shape=partialRectangle;connectable=0;fillColor=none;top=0;left=0;bottom=0;right=0;editable=1;overflow=hidden;whiteSpace=wrap;html=1;" parent="Fzed2xLTQUTYp7m4JMjA-257" vertex="1">
                    <mxGeometry width="30" height="30" as="geometry">
                        <mxRectangle width="30" height="30" as="alternateBounds"/>
                    </mxGeometry>
                </mxCell>
                <mxCell id="Fzed2xLTQUTYp7m4JMjA-259" value="- postal: &lt;font color=&quot;#358a62&quot;&gt;&lt;b&gt;int&lt;/b&gt;&lt;/font&gt;" style="shape=partialRectangle;connectable=0;fillColor=none;top=0;left=0;bottom=0;right=0;align=left;spacingLeft=6;overflow=hidden;whiteSpace=wrap;html=1;" parent="Fzed2xLTQUTYp7m4JMjA-257" vertex="1">
                    <mxGeometry x="30" width="179" height="30" as="geometry">
                        <mxRectangle width="179" height="30" as="alternateBounds"/>
                    </mxGeometry>
                </mxCell>
                <mxCell id="Fzed2xLTQUTYp7m4JMjA-254" value="" style="shape=tableRow;horizontal=0;startSize=0;swimlaneHead=0;swimlaneBody=0;fillColor=none;collapsible=0;dropTarget=0;points=[[0,0.5],[1,0.5]];portConstraint=eastwest;top=0;left=0;right=0;bottom=0;" parent="Fzed2xLTQUTYp7m4JMjA-232" vertex="1">
                    <mxGeometry y="270" width="209" height="30" as="geometry"/>
                </mxCell>
                <mxCell id="Fzed2xLTQUTYp7m4JMjA-255" value="" style="shape=partialRectangle;connectable=0;fillColor=none;top=0;left=0;bottom=0;right=0;editable=1;overflow=hidden;whiteSpace=wrap;html=1;" parent="Fzed2xLTQUTYp7m4JMjA-254" vertex="1">
                    <mxGeometry width="30" height="30" as="geometry">
                        <mxRectangle width="30" height="30" as="alternateBounds"/>
                    </mxGeometry>
                </mxCell>
                <mxCell id="Fzed2xLTQUTYp7m4JMjA-256" value="- city: &lt;font color=&quot;#358a62&quot;&gt;&lt;b&gt;String&lt;/b&gt;&lt;/font&gt;" style="shape=partialRectangle;connectable=0;fillColor=none;top=0;left=0;bottom=0;right=0;align=left;spacingLeft=6;overflow=hidden;whiteSpace=wrap;html=1;" parent="Fzed2xLTQUTYp7m4JMjA-254" vertex="1">
                    <mxGeometry x="30" width="179" height="30" as="geometry">
                        <mxRectangle width="179" height="30" as="alternateBounds"/>
                    </mxGeometry>
                </mxCell>
                <mxCell id="Fzed2xLTQUTYp7m4JMjA-260" value="" style="shape=tableRow;horizontal=0;startSize=0;swimlaneHead=0;swimlaneBody=0;fillColor=none;collapsible=0;dropTarget=0;points=[[0,0.5],[1,0.5]];portConstraint=eastwest;top=0;left=0;right=0;bottom=0;" parent="Fzed2xLTQUTYp7m4JMjA-232" vertex="1">
                    <mxGeometry y="300" width="209" height="30" as="geometry"/>
                </mxCell>
                <mxCell id="Fzed2xLTQUTYp7m4JMjA-261" value="" style="shape=partialRectangle;connectable=0;fillColor=none;top=0;left=0;bottom=0;right=0;editable=1;overflow=hidden;whiteSpace=wrap;html=1;" parent="Fzed2xLTQUTYp7m4JMjA-260" vertex="1">
                    <mxGeometry width="30" height="30" as="geometry">
                        <mxRectangle width="30" height="30" as="alternateBounds"/>
                    </mxGeometry>
                </mxCell>
                <mxCell id="Fzed2xLTQUTYp7m4JMjA-262" value="- phoneNumber: &lt;font color=&quot;#358a62&quot;&gt;&lt;b&gt;String&lt;/b&gt;&lt;/font&gt;" style="shape=partialRectangle;connectable=0;fillColor=none;top=0;left=0;bottom=0;right=0;align=left;spacingLeft=6;overflow=hidden;whiteSpace=wrap;html=1;" parent="Fzed2xLTQUTYp7m4JMjA-260" vertex="1">
                    <mxGeometry x="30" width="179" height="30" as="geometry">
                        <mxRectangle width="179" height="30" as="alternateBounds"/>
                    </mxGeometry>
                </mxCell>
                <mxCell id="Fzed2xLTQUTYp7m4JMjA-263" value="" style="shape=tableRow;horizontal=0;startSize=0;swimlaneHead=0;swimlaneBody=0;fillColor=none;collapsible=0;dropTarget=0;points=[[0,0.5],[1,0.5]];portConstraint=eastwest;top=0;left=0;right=0;bottom=0;" parent="Fzed2xLTQUTYp7m4JMjA-232" vertex="1">
                    <mxGeometry y="330" width="209" height="30" as="geometry"/>
                </mxCell>
                <mxCell id="Fzed2xLTQUTYp7m4JMjA-264" value="" style="shape=partialRectangle;connectable=0;fillColor=none;top=0;left=0;bottom=0;right=0;editable=1;overflow=hidden;whiteSpace=wrap;html=1;" parent="Fzed2xLTQUTYp7m4JMjA-263" vertex="1">
                    <mxGeometry width="30" height="30" as="geometry">
                        <mxRectangle width="30" height="30" as="alternateBounds"/>
                    </mxGeometry>
                </mxCell>
                <mxCell id="Fzed2xLTQUTYp7m4JMjA-265" value="- email: &lt;font color=&quot;#358a62&quot;&gt;&lt;b&gt;String&lt;/b&gt;&lt;/font&gt;" style="shape=partialRectangle;connectable=0;fillColor=none;top=0;left=0;bottom=0;right=0;align=left;spacingLeft=6;overflow=hidden;whiteSpace=wrap;html=1;" parent="Fzed2xLTQUTYp7m4JMjA-263" vertex="1">
                    <mxGeometry x="30" width="179" height="30" as="geometry">
                        <mxRectangle width="179" height="30" as="alternateBounds"/>
                    </mxGeometry>
                </mxCell>
                <mxCell id="Fzed2xLTQUTYp7m4JMjA-168" value="Notification" style="shape=table;startSize=30;container=1;collapsible=1;childLayout=tableLayout;fixedRows=1;rowLines=0;fontStyle=1;align=center;resizeLast=1;html=1;fillColor=#fff2cc;strokeColor=#d6b656;" parent="1" vertex="1">
                    <mxGeometry x="-1140" y="40" width="230" height="150" as="geometry"/>
                </mxCell>
                <mxCell id="Fzed2xLTQUTYp7m4JMjA-169" value="" style="shape=tableRow;horizontal=0;startSize=0;swimlaneHead=0;swimlaneBody=0;fillColor=none;collapsible=0;dropTarget=0;points=[[0,0.5],[1,0.5]];portConstraint=eastwest;top=0;left=0;right=0;bottom=1;" parent="Fzed2xLTQUTYp7m4JMjA-168" vertex="1">
                    <mxGeometry y="30" width="230" height="30" as="geometry"/>
                </mxCell>
                <mxCell id="Fzed2xLTQUTYp7m4JMjA-170" value="PK" style="shape=partialRectangle;connectable=0;fillColor=none;top=0;left=0;bottom=0;right=0;fontStyle=1;overflow=hidden;whiteSpace=wrap;html=1;" parent="Fzed2xLTQUTYp7m4JMjA-169" vertex="1">
                    <mxGeometry width="30" height="30" as="geometry">
                        <mxRectangle width="30" height="30" as="alternateBounds"/>
                    </mxGeometry>
                </mxCell>
                <mxCell id="Fzed2xLTQUTYp7m4JMjA-171" value="+ Id: &lt;font style=&quot;&quot; color=&quot;#358a62&quot;&gt;Long&lt;/font&gt;" style="shape=partialRectangle;connectable=0;fillColor=none;top=0;left=0;bottom=0;right=0;align=left;spacingLeft=6;fontStyle=5;overflow=hidden;whiteSpace=wrap;html=1;" parent="Fzed2xLTQUTYp7m4JMjA-169" vertex="1">
                    <mxGeometry x="30" width="200" height="30" as="geometry">
                        <mxRectangle width="200" height="30" as="alternateBounds"/>
                    </mxGeometry>
                </mxCell>
                <mxCell id="Fzed2xLTQUTYp7m4JMjA-172" value="" style="shape=tableRow;horizontal=0;startSize=0;swimlaneHead=0;swimlaneBody=0;fillColor=none;collapsible=0;dropTarget=0;points=[[0,0.5],[1,0.5]];portConstraint=eastwest;top=0;left=0;right=0;bottom=0;" parent="Fzed2xLTQUTYp7m4JMjA-168" vertex="1">
                    <mxGeometry y="60" width="230" height="30" as="geometry"/>
                </mxCell>
                <mxCell id="Fzed2xLTQUTYp7m4JMjA-173" value="" style="shape=partialRectangle;connectable=0;fillColor=none;top=0;left=0;bottom=0;right=0;editable=1;overflow=hidden;whiteSpace=wrap;html=1;" parent="Fzed2xLTQUTYp7m4JMjA-172" vertex="1">
                    <mxGeometry width="30" height="30" as="geometry">
                        <mxRectangle width="30" height="30" as="alternateBounds"/>
                    </mxGeometry>
                </mxCell>
                <mxCell id="Fzed2xLTQUTYp7m4JMjA-174" value="- receiverViewed: &lt;b style=&quot;&quot;&gt;&lt;font color=&quot;#358a62&quot;&gt;boolean&lt;span style=&quot;white-space: pre;&quot;&gt;&#9;&lt;/span&gt;&lt;span style=&quot;white-space: pre;&quot;&gt;&#9;&lt;/span&gt;&lt;/font&gt;&lt;/b&gt;" style="shape=partialRectangle;connectable=0;fillColor=none;top=0;left=0;bottom=0;right=0;align=left;spacingLeft=6;overflow=hidden;whiteSpace=wrap;html=1;" parent="Fzed2xLTQUTYp7m4JMjA-172" vertex="1">
                    <mxGeometry x="30" width="200" height="30" as="geometry">
                        <mxRectangle width="200" height="30" as="alternateBounds"/>
                    </mxGeometry>
                </mxCell>
                <mxCell id="Fzed2xLTQUTYp7m4JMjA-175" value="" style="shape=tableRow;horizontal=0;startSize=0;swimlaneHead=0;swimlaneBody=0;fillColor=none;collapsible=0;dropTarget=0;points=[[0,0.5],[1,0.5]];portConstraint=eastwest;top=0;left=0;right=0;bottom=0;" parent="Fzed2xLTQUTYp7m4JMjA-168" vertex="1">
                    <mxGeometry y="90" width="230" height="30" as="geometry"/>
                </mxCell>
                <mxCell id="Fzed2xLTQUTYp7m4JMjA-176" value="" style="shape=partialRectangle;connectable=0;fillColor=none;top=0;left=0;bottom=0;right=0;editable=1;overflow=hidden;whiteSpace=wrap;html=1;" parent="Fzed2xLTQUTYp7m4JMjA-175" vertex="1">
                    <mxGeometry width="30" height="30" as="geometry">
                        <mxRectangle width="30" height="30" as="alternateBounds"/>
                    </mxGeometry>
                </mxCell>
                <mxCell id="Fzed2xLTQUTYp7m4JMjA-177" value="- ownerViewed: &lt;b style=&quot;&quot;&gt;&lt;font color=&quot;#358a62&quot;&gt;boolean&lt;/font&gt;&lt;/b&gt;" style="shape=partialRectangle;connectable=0;fillColor=none;top=0;left=0;bottom=0;right=0;align=left;spacingLeft=6;overflow=hidden;whiteSpace=wrap;html=1;" parent="Fzed2xLTQUTYp7m4JMjA-175" vertex="1">
                    <mxGeometry x="30" width="200" height="30" as="geometry">
                        <mxRectangle width="200" height="30" as="alternateBounds"/>
                    </mxGeometry>
                </mxCell>
                <mxCell id="Fzed2xLTQUTYp7m4JMjA-178" value="" style="shape=tableRow;horizontal=0;startSize=0;swimlaneHead=0;swimlaneBody=0;fillColor=none;collapsible=0;dropTarget=0;points=[[0,0.5],[1,0.5]];portConstraint=eastwest;top=0;left=0;right=0;bottom=0;" parent="Fzed2xLTQUTYp7m4JMjA-168" vertex="1">
                    <mxGeometry y="120" width="230" height="30" as="geometry"/>
                </mxCell>
                <mxCell id="Fzed2xLTQUTYp7m4JMjA-179" value="" style="shape=partialRectangle;connectable=0;fillColor=none;top=0;left=0;bottom=0;right=0;editable=1;overflow=hidden;whiteSpace=wrap;html=1;" parent="Fzed2xLTQUTYp7m4JMjA-178" vertex="1">
                    <mxGeometry width="30" height="30" as="geometry">
                        <mxRectangle width="30" height="30" as="alternateBounds"/>
                    </mxGeometry>
                </mxCell>
                <mxCell id="Fzed2xLTQUTYp7m4JMjA-180" value="- rent: &lt;b style=&quot;&quot;&gt;&lt;font color=&quot;#358a62&quot;&gt;Rent&lt;/font&gt;&lt;/b&gt;" style="shape=partialRectangle;connectable=0;fillColor=none;top=0;left=0;bottom=0;right=0;align=left;spacingLeft=6;overflow=hidden;whiteSpace=wrap;html=1;" parent="Fzed2xLTQUTYp7m4JMjA-178" vertex="1">
                    <mxGeometry x="30" width="200" height="30" as="geometry">
                        <mxRectangle width="200" height="30" as="alternateBounds"/>
                    </mxGeometry>
                </mxCell>
                <mxCell id="Fzed2xLTQUTYp7m4JMjA-270" value="" style="edgeStyle=entityRelationEdgeStyle;fontSize=12;html=1;endArrow=ERmandOne;startArrow=ERmandOne;rounded=0;" parent="1" source="Fzed2xLTQUTYp7m4JMjA-178" target="Fzed2xLTQUTYp7m4JMjA-182" edge="1">
                    <mxGeometry width="100" height="100" relative="1" as="geometry">
                        <mxPoint x="-820" y="360" as="sourcePoint"/>
                        <mxPoint x="-730" y="110" as="targetPoint"/>
                    </mxGeometry>
                </mxCell>
                <mxCell id="Fzed2xLTQUTYp7m4JMjA-271" value="" style="edgeStyle=entityRelationEdgeStyle;fontSize=12;html=1;endArrow=ERzeroToMany;startArrow=ERmandOne;rounded=0;" parent="1" source="Fzed2xLTQUTYp7m4JMjA-239" target="Fzed2xLTQUTYp7m4JMjA-185" edge="1">
                    <mxGeometry width="100" height="100" relative="1" as="geometry">
                        <mxPoint x="-850" y="490" as="sourcePoint"/>
                        <mxPoint x="-750" y="390" as="targetPoint"/>
                    </mxGeometry>
                </mxCell>
                <mxCell id="Fzed2xLTQUTYp7m4JMjA-273" value="" style="edgeStyle=entityRelationEdgeStyle;fontSize=12;html=1;endArrow=ERoneToMany;startArrow=ERzeroToMany;rounded=0;" parent="1" source="Fzed2xLTQUTYp7m4JMjA-236" target="Fzed2xLTQUTYp7m4JMjA-61" edge="1">
                    <mxGeometry width="100" height="100" relative="1" as="geometry">
                        <mxPoint x="-1260" y="660" as="sourcePoint"/>
                        <mxPoint x="-1120" y="580" as="targetPoint"/>
                    </mxGeometry>
                </mxCell>
            </root>
        </mxGraphModel>
    </diagram>
</mxfile>